<svg xmlns="http://www.w3.org/2000/svg" viewBox="0 0 64 64" role="img" aria-labelledby="title desc">
  <title id="title">Playful outlined toilet icon</title>
  <desc id="desc">A clean outlined toilet in a playful line-art style for use on a dark themed map.</desc>

  <defs>
    <filter id="glow" x="-30%" y="-30%" width="160%" height="160%">
      <feDropShadow dx="0" dy="0" stdDeviation="2.8" flood-color="#5eeeff" flood-opacity="0.65" />
    </filter>
  </defs>

  <g
    fill="none"
    filter="url(#glow)"
    stroke="#ffffff"
    stroke-linecap="round"
    stroke-linejoin="round"
    stroke-width="4.25"
  >
    <path d="M37 10 51 15.5 44.5 17.2 30.5 12Z" />
    <path d="M30.5 12c5.2 0 10 6.9 10 16.2 0 7.6-2.8 12.3-7.2 12.3-5.3 0-8.8-5.7-8.8-14.6C24.5 17.3 27.3 12 30.5 12Z" />
    <path d="M51 15.5 49.5 30.8c-.3 2.6-1.2 3.8-3.5 4.3l-6 1.4" />
    <path d="M40 18 46.2 17.2" />
    <path d="M40 18V35" />
    <path d="M33.2 38.9 39.2 43" />

    <path d="M13 31.8c5.6-2.6 15-3 21.2.2 4.3 2.2 5.7 5.9 3.7 9.5-2.3 4-9.1 7.6-17.2 8.7-7 1-12.3-.7-14.4-4.4-2.4-4.3.5-10 6.7-14Z" />
    <path d="M17 34.6c3.6-1.5 9.1-1.7 12.7.2 2.5 1.3 3.2 3.2 2.2 5-1.3 2.3-5.4 4.1-10 4.8-4.3.6-7.5-.4-8.7-2.4-1.5-2.8.4-6 3.8-7.6Z" />
    <path d="M8.7 45.6c1.4 4.2 7 6.7 14 6 7.7-.7 14-4.1 17.3-8.2" />
    <path d="M38.8 42.8 46 39.8 44.8 52.3 36 56.8" />
    <path d="M9.3 45.2 17.2 52.2" />
    <path d="M17.2 52.2V57c0 2.8 3 4.9 7.3 4.9 4.2 0 8.4-1.3 10.5-4.1" />
    <path d="M17.8 53.2c2.6 1 5.7 1.3 8.8 1.1" />

    <path d="M53.5 11.3 54.8 14l2.7 1.3-2.7 1.3-1.3 2.7-1.3-2.7-2.7-1.3 2.7-1.3 1.3-2.7Z" stroke="#9df6ff" stroke-width="3.2" />
  </g>
</svg>
